<svg width="80" height="24" viewBox="0 0 80 24" fill="none" xmlns="http://www.w3.org/2000/svg">
<g id="Amazon_logo 1" clip-path="url(#clip0_4384_6724)">
<path id="path8" d="M49.3202 18.7495C44.7049 22.1513 38.0153 23.9663 32.2557 23.9663C24.1797 23.9663 16.9093 20.9793 11.4089 16.0114C10.9768 15.6207 11.364 15.0883 11.8826 15.3925C17.8185 18.8463 25.1581 20.924 32.7397 20.924C37.8528 20.924 43.4776 19.8661 48.6495 17.6708C49.4309 17.3389 50.0843 18.1825 49.3202 18.7495Z" fill="#FF9900"/>
<path id="path10" d="M51.2385 16.5542C50.6508 15.8005 47.3388 16.1981 45.8522 16.3744C45.3994 16.4297 45.3302 16.0356 45.7382 15.7521C48.376 13.8956 52.7044 14.4315 53.2091 15.0538C53.7138 15.6795 53.0777 20.0183 50.5989 22.0891C50.2187 22.4072 49.8556 22.2378 50.0251 21.816C50.5817 20.4262 51.8297 17.3113 51.2385 16.5542Z" fill="#FF9900"/>
<path id="path12" d="M45.9559 2.646V0.841355C45.9559 0.568239 46.1633 0.38501 46.4122 0.38501H54.4916C54.7509 0.38501 54.9584 0.571697 54.9584 0.841355V2.38671C54.9549 2.646 54.7371 2.9848 54.3499 3.52066L50.1633 9.4981C51.719 9.46007 53.3612 9.6917 54.7717 10.4868C55.0897 10.6666 55.1762 10.9294 55.2004 11.1887V13.1143C55.2004 13.377 54.91 13.6847 54.6057 13.5257C52.12 12.2223 48.8184 12.0806 46.07 13.5395C45.79 13.6916 45.4961 13.3874 45.4961 13.1247V11.2958C45.4961 11.002 45.4995 10.5007 45.7934 10.0547L50.6438 3.09888H46.4226C46.1633 3.09888 45.9559 2.91566 45.9559 2.646Z" fill="#221F1F"/>
<path id="path14" d="M16.483 13.9062H14.025C13.7899 13.8889 13.6032 13.7126 13.5859 13.4879V0.872657C13.5859 0.620284 13.7968 0.419767 14.0596 0.419767H16.3517C16.5902 0.430131 16.7804 0.613368 16.7976 0.84154V2.49061H16.8426C17.4407 0.896855 18.5643 0.153564 20.0785 0.153564C21.6169 0.153564 22.578 0.896855 23.2695 2.49061C23.8641 0.896855 25.2158 0.153564 26.6644 0.153564C27.6946 0.153564 28.8217 0.578796 29.5096 1.53297C30.2875 2.59432 30.1285 4.13622 30.1285 5.48797L30.125 13.4498C30.125 13.7022 29.9141 13.9062 29.6514 13.9062H27.1968C26.9513 13.8889 26.7543 13.6918 26.7543 13.4498V6.76367C26.7543 6.23126 26.8027 4.90371 26.6851 4.39896C26.5019 3.55196 25.9522 3.31341 25.24 3.31341C24.6454 3.31341 24.0231 3.71099 23.7708 4.34711C23.5184 4.98323 23.5426 6.04803 23.5426 6.76367V13.4498C23.5426 13.7022 23.3317 13.9062 23.0689 13.9062H20.6144C20.3654 13.8889 20.1718 13.6918 20.1718 13.4498L20.1684 6.76367C20.1684 5.3566 20.4 3.28576 18.6541 3.28576C16.8875 3.28576 16.9567 5.30474 16.9567 6.76367V13.4498C16.9567 13.7022 16.7458 13.9062 16.483 13.9062Z" fill="#221F1F"/>
<path id="path16" d="M61.9143 0.153564C65.5616 0.153564 67.5356 3.28576 67.5356 7.26841C67.5356 11.1162 65.3542 14.1689 61.9143 14.1689C58.3327 14.1689 56.3828 11.0367 56.3828 7.13358C56.3828 3.20624 58.3569 0.153564 61.9143 0.153564ZM61.935 2.72915C60.1235 2.72915 60.0094 5.19757 60.0094 6.73601C60.0094 8.27791 59.9852 11.5691 61.9143 11.5691C63.8192 11.5691 63.9091 8.91403 63.9091 7.29607C63.9091 6.23126 63.8641 4.95903 63.5426 3.94953C63.266 3.07141 62.7163 2.72915 61.935 2.72915Z" fill="#221F1F"/>
<path id="path18" d="M72.2647 13.9062H69.8171C69.5716 13.8889 69.3745 13.6918 69.3745 13.4498L69.3711 0.831169C69.3918 0.599539 69.5958 0.419767 69.8447 0.419767H72.123C72.3373 0.430131 72.5137 0.575339 72.5621 0.772398V2.7015H72.607C73.295 0.97637 74.2595 0.153564 75.957 0.153564C77.0598 0.153564 78.135 0.551139 78.8264 1.64015C79.4695 2.64964 79.4695 4.34711 79.4695 5.56749V13.5086C79.4418 13.7299 79.2378 13.9062 78.9958 13.9062H76.5309C76.3062 13.8889 76.1195 13.7229 76.0953 13.5086V6.6565C76.0953 5.27709 76.2543 3.2581 74.5568 3.2581C73.9588 3.2581 73.4091 3.65913 73.1359 4.26759C72.7902 5.03854 72.7453 5.80603 72.7453 6.6565V13.4498C72.7418 13.7022 72.5275 13.9062 72.2647 13.9062Z" fill="#221F1F"/>
<path id="use28" d="M39.5162 7.88024V7.34784C37.7392 7.34784 35.862 7.72812 35.862 9.82316C35.862 10.8845 36.4117 11.6036 37.3555 11.6036C38.0469 11.6036 38.6657 11.1784 39.0564 10.4869C39.5404 9.63648 39.5162 8.83787 39.5162 7.88024ZM41.995 13.8715C41.8325 14.0167 41.5974 14.0271 41.4142 13.9303C40.5983 13.2527 40.4531 12.9381 40.0037 12.2916C38.6554 13.6675 37.7012 14.0789 35.9519 14.0789C33.8845 14.0789 32.2734 12.8032 32.2734 10.2484C32.2734 8.25361 33.3555 6.89495 34.894 6.23117C36.2284 5.64345 38.0918 5.53974 39.5162 5.37725V5.05919C39.5162 4.47493 39.5611 3.7835 39.2189 3.27875C38.9181 2.82586 38.3442 2.63917 37.8395 2.63917C36.9026 2.63917 36.0659 3.11972 35.862 4.11538C35.8205 4.33664 35.658 4.55444 35.4367 4.56482L33.0513 4.30898C32.8508 4.26404 32.6295 4.10155 32.6848 3.79387C33.2345 0.903679 35.8447 0.0324707 38.1817 0.0324707C39.3779 0.0324707 40.9406 0.35053 41.8844 1.25631C43.0805 2.37297 42.9665 3.86301 42.9665 5.48442V9.31496C42.9665 10.4662 43.4435 10.9709 43.893 11.5932C44.052 11.8145 44.0866 12.0807 43.8861 12.2466C43.3848 12.665 42.4928 13.4428 42.0019 13.8784L41.995 13.8715Z" fill="#221F1F"/>
<path id="path30" d="M7.28964 7.88024V7.34784C5.51265 7.34784 3.63541 7.72812 3.63541 9.82316C3.63541 10.8845 4.1851 11.6036 5.12891 11.6036C5.82034 11.6036 6.43917 11.1784 6.82984 10.4869C7.31384 9.63648 7.28964 8.83787 7.28964 7.88024ZM9.76843 13.8715C9.60594 14.0167 9.37085 14.0271 9.18762 13.9303C8.37173 13.2527 8.22653 12.9381 7.7771 12.2916C6.4288 13.6675 5.47463 14.0789 3.7253 14.0789C1.65791 14.0789 0.046875 12.8032 0.046875 10.2484C0.046875 8.25361 1.12897 6.89495 2.66741 6.23117C4.00187 5.64345 5.86528 5.53974 7.28964 5.37725V5.05919C7.28964 4.47493 7.33458 3.7835 6.99232 3.27875C6.69155 2.82586 6.11766 2.63917 5.61291 2.63917C4.67602 2.63917 3.83939 3.11972 3.63541 4.11538C3.59393 4.33664 3.43144 4.55444 3.21018 4.56482L0.824738 4.30898C0.624221 4.26404 0.402962 4.10155 0.458277 3.79387C1.00797 0.903679 3.61813 0.0324707 5.95517 0.0324707C7.15135 0.0324707 8.71399 0.35053 9.6578 1.25631C10.854 2.37297 10.7399 3.86301 10.7399 5.48442V9.31496C10.7399 10.4662 11.217 10.9709 11.6664 11.5932C11.8254 11.8145 11.86 12.0807 11.6595 12.2466C11.1582 12.665 10.2663 13.4428 9.77534 13.8784L9.76843 13.8715Z" fill="#221F1F"/>
</g>
<defs>
<clipPath id="clip0_4384_6724">
<rect width="79.5165" height="24" fill="white"/>
</clipPath>
</defs>
</svg>
